<?xml version="1.0" encoding="UTF-8"?>
<svg width="414px" height="112px" viewBox="0 0 414 112" version="1.1" xmlns="http://www.w3.org/2000/svg" xmlns:xlink="http://www.w3.org/1999/xlink">
    <!-- Generator: Sketch 55.1 (78136) - https://sketchapp.com -->
    <title>libra_logo</title>
    <desc>Created with Sketch.</desc>
    <g id="Page-1" stroke="none" stroke-width="1" fill="none" fill-rule="evenodd">
        <g id="libra_logo" fill="#FFFFFF" fill-rule="nonzero">
            <path d="M34.7545971,0.00108568464 C33.2030451,-0.0111841871 31.5956387,0.0802038027 29.9262691,0.292716178 C21.819414,1.34546668 14.3954022,5.5530494 7.86161181,12.8591491 C4.85915667,16.2604297 2.22299335,19.9691248 0,23.9207452 L13.2971276,30.522464 C15.2084512,27.3129001 17.5482847,24.3813616 20.255472,21.804463 C23.9384007,18.4234818 27.849249,16.4433365 31.9281307,15.9234458 C33.0464151,15.7779666 34.1731481,15.7027956 35.2999172,15.7005401 C41.41626,15.7005401 46.3275978,18.0529452 53.0073252,22.3242815 C60.7606509,27.2886175 70.416533,33.4622486 84.0825685,31.7356702 C92.3353607,30.6738977 99.7594073,26.5219265 106.141039,19.3894996 C109.143494,15.9865274 111.777007,12.2800156 114,8.32613967 L100.700219,1.72442528 C98.7872001,4.93398926 96.4402621,7.86556387 93.7268527,10.4362599 C90.0196012,13.8674213 86.0735741,15.8675141 82.0586106,16.3789467 C74.3052849,17.3634686 68.8876204,14.9777229 60.9838326,9.92260336 C53.7260184,5.2758721 45.6154843,0.0869116334 34.7545971,0.00108568464 Z M34.7440082,39.4853979 C33.1924109,39.4731731 31.5849729,39.565328 29.9156802,39.777908 C21.824093,40.8131784 14.3865777,45.0373615 7.85278727,52.343458 C4.85201548,55.7464302 2.22073077,59.4534337 0,63.4050541 L13.2971276,70.0058888 C15.2084512,66.7968888 17.5482847,63.8647864 20.255472,61.2878878 C23.9384007,57.9069066 27.849249,55.9266936 31.9281307,55.4051113 C33.0464151,55.2618831 34.1731481,55.1871 35.2999172,55.1848445 C41.41626,55.1848445 46.3275978,57.537818 53.0073252,61.8085905 C60.7606509,66.7734903 70.4233208,72.9493769 84.0825685,71.2199791 C92.3353607,70.156515 99.7594073,66.0065512 106.141039,58.8746882 C109.143494,55.4717159 111.777007,51.7637607 114,47.8104486 L100.700219,41.2096126 C98.7872001,44.4186126 96.4402621,47.3498683 93.7268527,49.9205643 C90.0196012,53.3522941 86.0735741,55.3523869 82.0586106,55.8632557 C74.3052849,56.8477775 68.8876204,54.4629114 60.9838326,49.4077919 C53.7185926,44.7610638 45.6051533,39.5709532 34.7439946,39.4853979 L34.7440082,39.4853979 Z M34.7440082,78.9652996 C33.1924109,78.9530297 31.5849729,79.0444177 29.9156802,79.2569301 C21.824093,80.2922005 14.3865777,84.5212779 7.85278727,91.8251221 C4.85201548,95.2280944 2.22073077,98.9360541 0,102.889366 L13.2971276,109.490201 C15.2061886,106.281201 17.5482847,103.35005 20.255472,100.774843 C23.9253908,97.3916066 27.849249,95.3980321 31.9281307,94.8894188 C33.0464151,94.7461952 34.1731481,94.6714121 35.2999172,94.6691566 C41.41626,94.6691566 46.3275978,97.0212459 53.0073252,101.292018 C60.7606509,106.256918 70.4233208,112.433617 84.0825685,110.702527 C92.3353607,109.640755 99.7594073,105.490543 106.141039,98.3581161 C109.143494,94.9551484 111.777007,91.2463766 114,87.2947562 L100.700219,80.6930419 C98.7872001,83.9026057 96.4425247,86.8321008 93.7268527,89.4022329 C90.0196012,92.8317072 86.0735741,94.8317279 82.0586106,95.3431605 C74.3052849,96.3321934 68.8876204,93.9419366 60.9838326,88.8868171 C53.7185926,84.2400813 45.6051533,79.0511255 34.7439946,78.9652996 L34.7440082,78.9652996 Z" id="path5165"></path>
            <path d="M137,2 L137,110.310522 L152.337897,110.310522 L152.337897,2 L137,2 Z M168.528342,2 L168.528342,17.360908 L183.878593,17.360908 L183.878593,2 L168.528342,2 Z M200.069037,2 L200.069037,110.310522 L214.344341,110.310522 L214.344341,101.827763 L216.065319,103.308601 C222.755215,109.092895 230.857093,112 240.145792,112 C247.065011,112 253.577618,110.312713 258.998897,107.083625 C271.456316,99.7060048 278.863412,86.4801222 278.863412,71.6982842 C278.863412,56.9164552 271.495994,43.7949974 259.157755,36.4835772 C253.805386,33.3008858 246.570922,31.3983459 239.810421,31.3983459 C230.751045,31.3983459 222.322236,34.4809927 216.078558,40.0791347 L214.344341,41.631582 L214.344341,2 L200.069037,2 L200.069037,2 Z M373.921483,31.391271 C367.002263,31.391271 360.486512,33.0771774 355.067492,36.3085286 C342.610074,43.6844514 335.202978,56.910263 335.202978,71.6920964 C335.202978,86.4739299 342.570395,99.5962736 354.908634,106.907694 C360.261003,110.092648 367.493705,111.99293 374.254206,111.99293 C383.315842,111.99293 391.759829,108.912116 397.984302,103.315671 L399.718519,101.761459 L399.718519,110.304334 L414,110.310536 L414,33.0798797 L399.722934,33.0798797 L399.722934,41.5626344 L398.006366,40.0818008 C391.31647,34.3156127 383.212441,31.391271 373.921483,31.391271 L373.921483,31.391271 Z M328.924493,32.9384132 C318.397677,32.9384132 310.048723,36.1630471 306.031057,41.7809925 L304.146801,44.4049425 L304.146801,33.0887064 L288.781548,33.0887064 L288.781548,110.317593 L304.055899,110.317593 L304.055899,83.4795497 C304.055899,78.56604 304.000545,74.4351204 304.055899,69.5199087 C304.152486,61.4129662 306.880495,55.0499462 312.906147,50.9851541 C319.224947,46.7302494 326.662684,45.50753 334.115672,46.6991297 L334.115672,33.2761304 C332.394622,33.0571612 330.660793,32.9452029 328.924493,32.9384132 Z M168.528342,33.1744608 L168.528342,110.310522 L183.878593,110.310522 L183.878593,33.1744608 L168.528342,33.1744608 Z M374.614286,44.504842 C374.949232,44.504842 375.319904,44.504842 375.676879,44.5198702 C382.424389,44.7275232 388.811642,47.6146087 393.436505,52.5411321 C398.102601,57.4501153 400.697517,63.9738168 400.682333,70.7505494 L400.682333,73.261337 C400.686785,79.8609659 398.160566,86.2131586 393.628901,91.0021897 C389.142988,95.8115901 382.934118,98.6456011 376.36792,98.8775839 C376.056696,98.8775839 375.754406,98.8952825 375.454479,98.8952825 C360.137869,98.8952825 348.137681,86.9486324 348.137681,71.6982977 C348.137681,64.5221111 350.710009,57.7831476 355.383447,52.7259217 C360.28169,47.4236993 367.112158,44.504842 374.614286,44.504842 L374.614286,44.504842 Z M238.632213,44.5171634 C253.949387,44.5171634 265.949891,56.4620812 265.949891,71.7124113 C265.949891,78.888598 263.372584,85.6270635 258.699711,90.6865527 C253.801468,95.9865119 246.974855,98.9085089 239.473283,98.9085089 C239.13778,98.9085089 238.76283,98.9085089 238.409808,98.8908103 C231.660604,98.6831574 225.272329,95.7987212 220.645772,90.8721978 C215.985889,85.9632146 213.391041,79.4452029 213.401739,72.6707381 L213.401739,70.1608332 C213.391064,63.558941 215.911223,57.2065718 220.438369,52.4084877 C224.931061,47.5945608 231.146356,44.7628162 237.718767,44.5330966 C238.025472,44.5330966 238.327767,44.5171634 238.632213,44.5171634 L238.632213,44.5171634 Z" id="path5167"></path>
        </g>
    </g>
</svg>